. 
  
http://www.torrenting.com/        :     Greatest Movie Tracker on The Net!!!
 
http://www.Torrenting.com          :     Once & For all ;)


               www . Torrenting . Com 

(((((((((((((= Enjoy No RAR releases =))))))))))))))))))))


...................................NFO:....................................

.[img]http://img199.imageshack.us/img199/9392/daydreamv.jpg[/img]

[color=blue][size=5][b]Daydream.Nation.2010.BDRip.XVID.AC3.HQ.Hive-CM8 [/b][/size][/color]



[b]Thx Hive

CM8 Doing It Right The First Time :D

Source Bluray

Video: 720x400 @bitrate 1850 2pass
Audio: True HD AC3 640 to AC3 5.1 @448
Sample: yes included
Subs: yes english in srt /subs[/b]


[url]http://www.imdb.com/title/tt1581835/[/url]


General
Complete name                    : Daydream.Nation.2010.BDRip.XVID.AC3.HQ.Hive-CM8.avi
Format                           : AVI
Format/Info                      : Audio Video Interleave
File size                        : 1.58 GiB
Duration                         : 1h 38mn
Overall bit rate                 : 2 306 Kbps
Writing application              : Nandub v1.0rc2
Writing library                  : Nandub build 1853/release

Video
ID                               : 0
Format                           : MPEG-4 Visual
Format profile                   : Advanced Simple@L5
Format settings, BVOP            : 1
Format settings, QPel            : Yes
Format settings, GMC             : No warppoints
Format settings, Matrix          : Default (H.263)
Muxing mode                      : Packed bitstream
Codec ID                         : XVID
Codec ID/Hint                    : XviD
Duration                         : 1h 38mn
Bit rate                         : 1 849 Kbps
Width                            : 720 pixels
Height                           : 400 pixels
Display aspect ratio             : 16:9
Frame rate                       : 23.976 fps
Color space                      : YUV
Chroma subsampling               : 4:2:0
Bit depth                        : 8 bits
Scan type                        : Progressive
Compression mode                 : Lossy
Bits/(Pixel*Frame)               : 0.268
Stream size                      : 1.27 GiB (80%)
Writing library                  : XviD 1.2.1 (UTC 2008-12-04)

Audio
ID                               : 1
Format                           : AC-3
Format/Info                      : Audio Coding 3
Mode extension                   : CM (complete main)
Codec ID                         : 2000
Duration                         : 1h 38mn
Bit rate mode                    : Constant
Bit rate                         : 448 Kbps
Channel(s)                       : 6 channels
Channel positions                : Front: L C R, Side: L R, LFE
Sampling rate                    : 48.0 KHz
Bit depth                        : 16 bits
Compression mode                 : Lossy
Stream size                      : 315 MiB (19%)
Alignment                        : Split accross interleaves
Interleave, duration             : 42 ms (1.00 video frame)
Interleave, preload duration     : 500 ms


Kat Dennings	 ... 	Caroline Wexler
Reece Thompson	... 	Thurston
Josh Lucas	... 	Barry Anderson
Andie MacDowell	... 	Enid Goldberg
Rachel Blanchard ... 	Ms. Budge


Tells the story of a city girl who moves to a small town and becomes 
entangled in a love triangle between her high school teacher and a stoner classmate. 


[img]http://img851.imageshack.us/img851/6825/91930710.png[/img]
[img]http://img41.imageshack.us/img41/1664/dadaxa.png[/img]
[img]http://img534.imageshack.us/img534/6217/daddaa.png[/img]
[img]http://img851.imageshack.us/img851/6966/daddadaa.png[/img]
[img]http://img694.imageshack.us/img694/8991/daddadadaa.png[/img]
[img]http://img841.imageshack.us/img841/4111/daddadadaddaaa.png[/img]





ViSiON,LUSi,SANTi,MAGNET,THC,T0XiCiNK,LKRG,IMAGiNE,WBZ,FLAWL3SS,NOVA
Vik,OneTwo,Rapeseed,D2U,SAFC,goldadvance,MEMORY100,KaN1vE,Unevano,Pinnz,Wayne,Mr Hive
and all P2P groups 
Great Work Guys :D

CM8@hushmail.com